<?xml version="1.0" ?><!DOCTYPE svg  PUBLIC '-//W3C//DTD SVG 1.1//EN'  'http://www.w3.org/Graphics/SVG/1.1/DTD/svg11.dtd'><svg enable-background="new 0 0 158.229 158.229" height="158.229" id="Layer_1" overflow="visible" version="1.1" viewBox="0 0 158.229 158.229" width="158.229" xml:space="preserve" xmlns="http://www.w3.org/2000/svg" xmlns:xlink="http://www.w3.org/1999/xlink"><g id="icon_2_"><circle cx="79.115" cy="79.114" fill="#FCF9F9" r="79.114"/><path d="M75.898,110.861h6.012c0,0,1.826-0.196,2.753-1.194c0.857-0.927,0.829-2.647,0.829-2.647   s-0.119-8.077,3.632-9.265c3.694-1.18,8.442,7.804,13.471,11.252c3.8,2.613,6.693,2.044,6.693,2.044l13.458-0.189   c0,0,7.037-0.436,3.694-5.963c-0.268-0.457-1.938-4.095-10.002-11.575c-8.436-7.831-7.305-6.561,2.858-20.102   c6.188-8.25,8.66-13.282,7.888-15.438c-0.737-2.055-5.289-1.514-5.289-1.514l-15.149,0.095c0,0-1.124-0.154-1.953,0.344   c-0.814,0.488-1.334,1.626-1.334,1.626s-2.402,6.381-5.591,11.807c-6.743,11.452-9.44,12.06-10.55,11.347   c-2.563-1.658-1.925-6.655-1.925-10.209c0-11.097,1.687-15.726-3.272-16.923c-1.65-0.397-2.866-0.66-7.073-0.702   c-5.401-0.056-9.98,0.014-12.565,1.285c-1.728,0.843-3.055,2.722-2.248,2.831c1.004,0.133,3.273,0.611,4.474,2.248   c1.552,2.11,1.496,6.852,1.496,6.852s0.892,13.067-2.079,14.69c-2.044,1.113-4.846-1.163-10.859-11.55   c-3.076-5.324-5.408-11.207-5.408-11.207s-0.449-1.099-1.243-1.686c-0.976-0.713-2.325-0.941-2.325-0.941L29.893,56.27   c0,0-2.163,0.06-2.95,1.001c-0.709,0.835-0.056,2.563-0.056,2.563s11.266,26.36,24.021,39.649   C62.609,111.662,75.898,110.861,75.898,110.861" fill="#318B37"/></g></svg>