<svg width="47" height="47" viewBox="0 0 47 47" fill="none" xmlns="http://www.w3.org/2000/svg">
<path d="M5.72234 46.1895L18.6796 33.3049C18.8545 33.4205 19.1465 33.5076 19.5257 33.5941C21.8312 34.9549 24.3408 35.7968 26.9967 36.0556C27.6094 36.1149 28.2519 36.1421 28.8645 36.1421C30.8779 36.1421 32.8963 35.8086 34.8762 35.1291C37.4494 34.2452 39.7255 32.8177 41.7054 30.8725C48.773 23.9283 48.7568 12.2371 41.7054 5.30584C39.3595 3.00052 36.625 1.43592 33.5047 0.615028C30.35 -0.214543 27.2595 -0.19542 24.1366 0.615028C21.0138 1.42609 18.2793 2.96903 15.936 5.30584C12.4426 8.78901 10.6247 13.3551 10.6247 18.0749C10.6247 21.694 11.6793 24.984 13.6013 28.0347L13.8932 28.498L0.877384 41.4407C0.381756 41.9336 0.0890846 42.4543 0.031189 42.9466C0.00192642 43.0621 -0.00364304 43.1492 0.00193024 43.2357C0.0249939 43.5841 0.115253 43.9034 0.264721 44.1622C0.46582 44.5118 0.760891 44.8862 1.16936 45.292L1.75338 45.8708C2.16177 46.276 2.53967 46.5688 2.89147 46.7684C3.15233 46.9166 3.50406 47 3.9424 47H4.17586C4.67195 47 5.21177 46.6967 5.72234 46.1895ZM24.954 32.4358C22.3897 31.7563 20.1389 30.4672 18.2127 28.556C15.4111 25.7764 13.8353 22.0411 13.8353 18.0748C13.8353 14.166 15.4366 10.4548 18.2127 7.564C23.6665 1.88427 33.8632 1.90777 39.3707 7.564C42.1518 10.4209 43.7774 14.137 43.7774 18.0748C43.7774 22.2153 42.2981 25.6695 39.3707 28.556C37.4531 30.4468 35.2267 31.7699 32.6586 32.4358C30.0904 33.1017 27.5259 33.1172 24.954 32.4358Z" fill="#297334"/>
</svg>
